<?xml version="1.0" encoding="UTF-8" standalone="no"?>
<!DOCTYPE svg PUBLIC "-//W3C//DTD SVG 1.1//EN" "http://www.w3.org/Graphics/SVG/1.1/DTD/svg11.dtd">
<svg width="100%" height="100%" viewBox="0 0 1696 1692" version="1.1" xmlns="http://www.w3.org/2000/svg" xmlns:xlink="http://www.w3.org/1999/xlink" xml:space="preserve" xmlns:serif="http://www.serif.com/" style="fill-rule:evenodd;clip-rule:evenodd;stroke-miterlimit:2;">
    <g transform="matrix(4.16667,0,0,4.16667,0,0)">
        <rect x="0.671" y="0.229" width="405.446" height="405.445" style="fill:none;stroke:white;stroke-width:0.22px;"/>
        <path d="M353.903,52.441C339.919,36.569 321.941,22.03 298.804,17.025C279.265,12.798 255.627,19.443 239.816,35.47C226.939,48.523 213.568,61.234 201.63,76.485C191.926,70.502 181.718,67.748 178.09,76.206C177.157,78.382 194.243,87.203 197.406,86.421C198.492,86.153 199.221,88.005 200.04,88.094C175.381,107.001 149.48,129.758 127.026,153.389C118.614,154.398 112.015,163.034 111.294,170.007C102.159,179.807 94.143,188.134 85.657,198.821C78.906,200.505 70.248,207.583 62.557,214.615C49.514,227.972 35.881,240.503 24.608,255.867C15.328,269.217 14.117,284.612 19.186,302.537C24.724,322.125 38.838,338.926 53.129,353.216C67.419,367.507 84.22,381.621 103.808,387.159C121.732,392.228 137.128,391.017 150.478,381.737C165.841,370.464 178.373,356.831 191.73,343.788C198.762,336.096 205.84,327.439 207.524,320.688C218.21,312.202 226.537,304.186 236.338,295.051C243.311,294.33 251.946,287.731 252.956,279.319C276.587,256.864 299.344,230.964 318.251,206.305C318.339,207.124 320.192,207.853 319.923,208.939C319.141,212.101 327.963,229.188 330.139,228.255C338.597,224.627 335.843,214.419 329.86,204.715C345.111,192.777 357.822,179.406 370.875,166.528C386.902,150.717 393.547,127.08 389.32,107.541C384.314,84.404 369.776,66.426 353.903,52.441Z" style="fill:rgb(252,210,59);"/>
        <path d="M353.903,52.441C339.919,36.569 321.941,22.03 298.804,17.025C279.265,12.798 255.627,19.443 239.816,35.47C226.939,48.523 213.568,61.234 201.63,76.485C191.926,70.502 181.718,67.748 178.09,76.206C177.157,78.382 194.243,87.203 197.406,86.421C198.492,86.153 199.221,88.005 200.04,88.094C175.381,107.001 149.48,129.758 127.026,153.389C118.614,154.398 112.015,163.034 111.294,170.007C102.159,179.807 94.143,188.134 85.657,198.821C78.906,200.505 70.248,207.583 62.557,214.615C49.514,227.972 35.881,240.503 24.608,255.867C15.328,269.217 14.117,284.612 19.186,302.537C24.724,322.125 38.838,338.926 53.129,353.216C67.419,367.507 84.22,381.621 103.808,387.159C121.732,392.228 137.128,391.017 150.478,381.737C165.841,370.464 178.373,356.831 191.73,343.788C198.762,336.096 205.84,327.439 207.524,320.688C218.21,312.202 226.537,304.186 236.338,295.051C243.311,294.33 251.946,287.731 252.956,279.319C276.587,256.864 299.344,230.964 318.251,206.305C318.339,207.124 320.192,207.853 319.923,208.939C319.141,212.101 327.963,229.188 330.139,228.255C338.597,224.627 335.843,214.419 329.86,204.715C345.111,192.777 357.822,179.406 370.875,166.528C386.902,150.717 393.547,127.08 389.32,107.541C384.314,84.404 369.776,66.426 353.903,52.441Z" style="fill:none;stroke:rgb(35,31,32);stroke-width:5.67px;"/>
        <path d="M353.903,52.441C339.919,36.569 321.941,22.03 298.804,17.025C279.265,12.798 255.627,19.443 239.816,35.47C226.939,48.523 213.568,61.234 201.63,76.485C191.926,70.502 181.718,67.748 178.09,76.206C177.157,78.382 194.243,87.203 197.406,86.421C198.492,86.153 199.221,88.005 200.04,88.094C175.381,107.001 149.48,129.758 127.026,153.389C118.614,154.398 112.015,163.034 111.294,170.007C102.159,179.807 94.143,188.134 85.657,198.821C78.906,200.505 70.248,207.583 62.557,214.615C49.514,227.972 35.881,240.503 24.608,255.867C15.328,269.217 14.117,284.612 19.186,302.537C24.724,322.125 38.838,338.926 53.129,353.216C67.419,367.507 84.22,381.621 103.808,387.159C121.732,392.228 137.128,391.017 150.478,381.737C165.841,370.464 178.373,356.831 191.73,343.788C198.762,336.096 205.84,327.439 207.524,320.688C218.21,312.202 226.537,304.186 236.338,295.051C243.311,294.33 251.946,287.731 252.956,279.319C276.587,256.864 299.344,230.964 318.251,206.305C318.339,207.124 320.192,207.853 319.923,208.939C319.141,212.101 327.963,229.188 330.139,228.255C338.597,224.627 335.843,214.419 329.86,204.715C345.111,192.777 357.822,179.406 370.875,166.528C386.902,150.717 393.547,127.08 389.32,107.541C384.314,84.404 369.776,66.426 353.903,52.441Z" style="fill:rgb(252,210,59);"/>
        <path d="M60.671,236.301C108.175,173.838 155.083,123.311 215.537,76.249C173.994,136.318 121.073,188.803 60.671,236.301Z" style="fill:rgb(35,31,32);"/>
        <path d="M158.441,175.303L187.718,147.207C190.929,144.125 195.956,144.119 199.162,147.207C209.265,156.939 219.754,166.315 229.47,176.402C239.557,186.118 248.933,196.606 258.665,206.71C261.753,209.916 261.747,214.943 258.665,218.154L230.569,247.431C227.487,250.642 222.272,250.578 219.125,247.431C198.897,227.203 178.669,206.975 158.441,186.747C155.294,183.6 155.23,178.385 158.441,175.303Z" style="fill:rgb(35,31,32);"/>
        <path d="M330.136,190.847C267.673,238.352 217.146,285.259 170.084,345.714C230.153,304.17 282.638,251.25 330.136,190.847Z" style="fill:rgb(35,31,32);"/>
        <path d="M80.707,325.638C65.919,310.813 54.634,293.163 49.593,270.48C64.678,254.922 79.764,239.365 94.85,223.808C103.851,239.733 118.197,256.274 133.508,272.837C150.071,288.148 166.612,302.493 182.537,311.495C166.98,326.581 151.422,341.667 135.865,356.752C113.181,351.711 95.532,340.426 80.707,325.638Z" style="fill:rgb(35,31,32);"/>
        <path d="M54.563,265.355L94.85,223.808C103.851,239.733 118.197,256.274 133.508,272.837C150.071,288.148 166.612,302.493 182.537,311.495L143.678,349.175C125.877,338.127 106.714,322.886 88.24,304.414C75.325,291.498 63.991,278.244 54.563,265.355Z" style="fill:rgb(51,49,50);"/>
        <path d="M54.563,265.355L94.85,223.808C103.851,239.733 118.197,256.274 133.508,272.837C150.071,288.148 166.612,302.493 182.537,311.495L143.678,349.175C125.877,338.127 106.714,322.886 88.24,304.414C75.325,291.498 63.991,278.244 54.563,265.355Z" style="fill:none;stroke:rgb(64,63,65);stroke-width:0.22px;"/>
        <path d="M246.24,160.105C229.698,143.792 212.103,129.429 191.259,118.914C203.751,102.178 216.245,85.442 228.737,68.706C254.562,62.376 280.757,73.986 307.231,99.114C332.358,125.588 343.969,151.783 337.639,177.607C320.903,190.1 304.167,202.593 287.431,215.086C276.916,194.242 262.552,176.647 246.24,160.105Z" style="fill:rgb(35,31,32);"/>
        <path d="M246.24,160.105C229.698,143.792 212.103,129.429 191.259,118.914L223.473,75.759C239.435,86.366 256.27,100.144 272.567,116.441C296.246,140.12 314.616,164.937 325.648,186.558L287.431,215.086C276.916,194.242 262.552,176.647 246.24,160.105Z" style="fill:rgb(51,49,50);"/>
        <path d="M246.24,160.105C229.698,143.792 212.103,129.429 191.259,118.914L223.473,75.759C239.435,86.366 256.27,100.144 272.567,116.441C296.246,140.12 314.616,164.937 325.648,186.558L287.431,215.086C276.916,194.242 262.552,176.647 246.24,160.105Z" style="fill:none;stroke:rgb(64,63,65);stroke-width:0.22px;"/>
        <path d="M268.447,23.315C269.425,21.096 277.42,20.088 286.302,21.063C295.184,22.038 301.595,24.628 300.618,26.846C299.641,29.064 291.645,30.072 282.763,29.097C273.881,28.122 267.471,25.532 268.447,23.315ZM379.499,105.727C377.281,106.704 376.273,114.7 377.248,123.582C378.223,132.464 380.813,138.874 383.03,137.897C385.248,136.92 386.256,128.925 385.282,120.043C384.307,111.161 381.717,104.75 379.499,105.727Z" style="fill:rgb(64,63,65);"/>
        <path d="M268.447,23.315C269.425,21.096 277.42,20.088 286.302,21.063C295.184,22.038 301.595,24.628 300.618,26.846C299.641,29.064 291.645,30.072 282.763,29.097C273.881,28.122 267.471,25.532 268.447,23.315ZM379.499,105.727C377.281,106.704 376.273,114.7 377.248,123.582C378.223,132.464 380.813,138.874 383.03,137.897C385.248,136.92 386.256,128.925 385.282,120.043C384.307,111.161 381.717,104.75 379.499,105.727Z" style="fill:none;stroke:rgb(64,63,65);stroke-width:0.22px;"/>
        <path d="M24.94,272.321C27.283,269.978 30.594,274.478 32.334,282.37C34.074,290.262 33.585,298.562 31.242,300.905C28.899,303.248 25.588,298.748 23.848,290.856C22.108,282.964 22.597,274.664 24.94,272.321ZM105.44,375.103C103.097,377.446 107.597,380.757 115.489,382.496C123.381,384.237 131.681,383.747 134.024,381.405C136.367,379.062 131.867,375.751 123.975,374.011C116.083,372.271 107.783,372.76 105.44,375.103Z" style="fill:rgb(237,28,36);"/>
        <path d="M24.94,272.321C27.283,269.978 30.594,274.478 32.334,282.37C34.074,290.262 33.585,298.562 31.242,300.905C28.899,303.248 25.588,298.748 23.848,290.856C22.108,282.964 22.597,274.664 24.94,272.321ZM105.44,375.103C103.097,377.446 107.597,380.757 115.489,382.496C123.381,384.237 131.681,383.747 134.024,381.405C136.367,379.062 131.867,375.751 123.975,374.011C116.083,372.271 107.783,372.76 105.44,375.103Z" style="fill:none;stroke:rgb(237,28,36);stroke-width:0.22px;"/>
    </g>
</svg>
