<?xml version="1.0" encoding="UTF-8" standalone="no"?><!DOCTYPE svg PUBLIC "-//W3C//DTD SVG 1.1//EN" "http://www.w3.org/Graphics/SVG/1.1/DTD/svg11.dtd"><svg width="100%" height="100%" viewBox="0 0 1024 768" version="1.1" xmlns="http://www.w3.org/2000/svg" xmlns:xlink="http://www.w3.org/1999/xlink" xml:space="preserve" xmlns:serif="http://www.serif.com/" style="fill-rule:evenodd;clip-rule:evenodd;stroke-linecap:round;stroke-linejoin:round;stroke-miterlimit:1.5;"><g id="Piste"><path id="fond" d="M960,672c0,8.487 -3.371,16.626 -9.373,22.627c-6.001,6.002 -14.14,9.373 -22.627,9.373c-139.368,0 -692.632,0 -832,0c-8.487,0 -16.626,-3.371 -22.627,-9.373c-6.002,-6.001 -9.373,-14.14 -9.373,-22.627c0,-91.928 0,-356.072 0,-448c0,-8.487 3.371,-16.626 9.373,-22.627c6.001,-6.002 14.14,-9.373 22.627,-9.373c139.368,0 692.632,0 832,0c8.487,0 16.626,3.371 22.627,9.373c6.002,6.001 9.373,14.14 9.373,22.627c0,91.928 0,356.072 0,448Zm-816,-416c-4.243,0 -8.313,1.686 -11.314,4.686c-3,3.001 -4.686,7.071 -4.686,11.314c0,62.466 0,289.534 0,352c0,4.243 1.686,8.313 4.686,11.314c3.001,3 7.071,4.686 11.314,4.686c99.827,0 636.173,0 736,0c4.243,0 8.313,-1.686 11.314,-4.686c3,-3.001 4.686,-7.071 4.686,-11.314c0,-62.466 0,-289.534 0,-352c0,-4.243 -1.686,-8.313 -4.686,-11.314c-3.001,-3 -7.071,-4.686 -11.314,-4.686c-99.827,0 -636.173,0 -736,0Z" style="fill:#858585;"/><g id="départ"><rect x="499.2" y="192" width="6.4" height="6.4" style="fill:#fff;"/><rect x="499.2" y="217.6" width="6.4" height="6.4" style="fill:#fff;"/><rect x="512" y="192" width="6.4" height="6.4" style="fill:#fff;"/><rect x="512" y="217.6" width="6.4" height="6.4" style="fill:#fff;"/><rect x="499.2" y="204.8" width="6.4" height="6.4" style="fill:#fff;"/><rect x="499.2" y="230.4" width="6.4" height="6.4" style="fill:#fff;"/><rect x="499.2" y="243.2" width="6.4" height="6.4" style="fill:#fff;"/><rect x="512" y="204.8" width="6.4" height="6.4" style="fill:#fff;"/><rect x="512" y="230.4" width="6.4" height="6.4" style="fill:#fff;"/><rect x="512" y="243.2" width="6.4" height="6.4" style="fill:#fff;"/><rect x="505.6" y="198.4" width="6.4" height="6.4" style="fill:#fff;"/><rect x="505.6" y="224" width="6.4" height="6.4" style="fill:#fff;"/><rect x="518.4" y="198.4" width="6.4" height="6.4" style="fill:#fff;"/><rect x="518.4" y="224" width="6.4" height="6.4" style="fill:#fff;"/><rect x="505.6" y="211.2" width="6.4" height="6.4" style="fill:#fff;"/><rect x="505.6" y="236.8" width="6.4" height="6.4" style="fill:#fff;"/><rect x="505.6" y="249.6" width="6.4" height="6.4" style="fill:#fff;"/><rect x="518.4" y="211.2" width="6.4" height="6.4" style="fill:#fff;"/><rect x="518.4" y="236.8" width="6.4" height="6.4" style="fill:#fff;"/><rect x="518.4" y="249.6" width="6.4" height="6.4" style="fill:#fff;"/></g><g id="cases"><path d="M576,192l0,64" style="fill:none;stroke:#aaa;stroke-width:3px;stroke-dasharray:3,6,0,0;"/><path d="M576,640l0,64" style="fill:none;stroke:#aaa;stroke-width:3px;stroke-dasharray:3,6,0,0;"/><path d="M192,640l0,64" style="fill:none;stroke:#aaa;stroke-width:3px;stroke-dasharray:3,6,0,0;"/><path d="M192,192l0,64" style="fill:none;stroke:#aaa;stroke-width:3px;stroke-dasharray:3,6,0,0;"/><path d="M128,640l0,64" style="fill:none;stroke:#aaa;stroke-width:3px;stroke-dasharray:3,6,0,0;"/><path d="M128,192l0,64" style="fill:none;stroke:#aaa;stroke-width:3px;stroke-dasharray:3,6,0,0;"/><path d="M640,192l0,64" style="fill:none;stroke:#aaa;stroke-width:3px;stroke-dasharray:3,6,0,0;"/><path d="M640,640l0,64" style="fill:none;stroke:#aaa;stroke-width:3px;stroke-dasharray:3,6,0,0;"/><path d="M256,640l0,64" style="fill:none;stroke:#aaa;stroke-width:3px;stroke-dasharray:3,6,0,0;"/><path d="M256,192l0,64" style="fill:none;stroke:#aaa;stroke-width:3px;stroke-dasharray:3,6,0,0;"/><path d="M704,192l0,64" style="fill:none;stroke:#aaa;stroke-width:3px;stroke-dasharray:3,6,0,0;"/><path d="M704,640l0,64" style="fill:none;stroke:#aaa;stroke-width:3px;stroke-dasharray:3,6,0,0;"/><path d="M320,640l0,64" style="fill:none;stroke:#aaa;stroke-width:3px;stroke-dasharray:3,6,0,0;"/><path d="M320,192l0,64" style="fill:none;stroke:#aaa;stroke-width:3px;stroke-dasharray:3,6,0,0;"/><path d="M768,192l0,64" style="fill:none;stroke:#aaa;stroke-width:3px;stroke-dasharray:3,6,0,0;"/><path d="M768,640l0,64" style="fill:none;stroke:#aaa;stroke-width:3px;stroke-dasharray:3,6,0,0;"/><path d="M384,640l0,64" style="fill:none;stroke:#aaa;stroke-width:3px;stroke-dasharray:3,6,0,0;"/><path d="M384,192l0,64" style="fill:none;stroke:#aaa;stroke-width:3px;stroke-dasharray:3,6,0,0;"/><path d="M832,192l0,64" style="fill:none;stroke:#aaa;stroke-width:3px;stroke-dasharray:3,6,0,0;"/><path d="M832,640l0,64" style="fill:none;stroke:#aaa;stroke-width:3px;stroke-dasharray:3,6,0,0;"/><path d="M448,640l0,64" style="fill:none;stroke:#aaa;stroke-width:3px;stroke-dasharray:3,6,0,0;"/><path d="M448,192l0,64" style="fill:none;stroke:#aaa;stroke-width:3px;stroke-dasharray:3,6,0,0;"/><path d="M896,192l0,64" style="fill:none;stroke:#aaa;stroke-width:3px;stroke-dasharray:3,6,0,0;"/><path d="M896,640l0,64" style="fill:none;stroke:#aaa;stroke-width:3px;stroke-dasharray:3,6,0,0;"/><path d="M512,640l0,64" style="fill:none;stroke:#aaa;stroke-width:3px;stroke-dasharray:3,6,0,0;"/><path d="M960,256l-64,0" style="fill:none;stroke:#aaa;stroke-width:3px;stroke-dasharray:3,6,0,0;"/><path d="M128,256l-64,0" style="fill:none;stroke:#aaa;stroke-width:3px;stroke-dasharray:3,6,0,0;"/><path d="M960,320l-64,0" style="fill:none;stroke:#aaa;stroke-width:3px;stroke-dasharray:3,6,0,0;"/><path d="M128,320l-64,0" style="fill:none;stroke:#aaa;stroke-width:3px;stroke-dasharray:3,6,0,0;"/><path d="M960,384l-64,0" style="fill:none;stroke:#aaa;stroke-width:3px;stroke-dasharray:3,6,0,0;"/><path d="M128,384l-64,0" style="fill:none;stroke:#aaa;stroke-width:3px;stroke-dasharray:3,6,0,0;"/><path d="M960,448l-64,0" style="fill:none;stroke:#aaa;stroke-width:3px;stroke-dasharray:3,6,0,0;"/><path d="M128,448l-64,0" style="fill:none;stroke:#aaa;stroke-width:3px;stroke-dasharray:3,6,0,0;"/><path d="M960,512l-64,0" style="fill:none;stroke:#aaa;stroke-width:3px;stroke-dasharray:3,6,0,0;"/><path d="M128,512l-64,0" style="fill:none;stroke:#aaa;stroke-width:3px;stroke-dasharray:3,6,0,0;"/><path d="M960,576l-64,0" style="fill:none;stroke:#aaa;stroke-width:3px;stroke-dasharray:3,6,0,0;"/><path d="M128,576l-64,0" style="fill:none;stroke:#aaa;stroke-width:3px;stroke-dasharray:3,6,0,0;"/><path d="M960,640l-64,0" style="fill:none;stroke:#aaa;stroke-width:3px;stroke-dasharray:3,6,0,0;"/><path d="M128,640l-64,0" style="fill:none;stroke:#aaa;stroke-width:3px;stroke-dasharray:3,6,0,0;"/></g><path id="bord" d="M960,672c0,8.487 -3.371,16.626 -9.373,22.627c-6.001,6.002 -14.14,9.373 -22.627,9.373c-139.368,0 -692.632,0 -832,0c-8.487,0 -16.626,-3.371 -22.627,-9.373c-6.002,-6.001 -9.373,-14.14 -9.373,-22.627c0,-91.928 0,-356.072 0,-448c0,-8.487 3.371,-16.626 9.373,-22.627c6.001,-6.002 14.14,-9.373 22.627,-9.373c139.368,0 692.632,0 832,0c8.487,0 16.626,3.371 22.627,9.373c6.002,6.001 9.373,14.14 9.373,22.627c0,91.928 0,356.072 0,448Zm-816,-416c-4.243,0 -8.313,1.686 -11.314,4.686c-3,3.001 -4.686,7.071 -4.686,11.314c0,62.466 0,289.534 0,352c0,4.243 1.686,8.313 4.686,11.314c3.001,3 7.071,4.686 11.314,4.686c99.827,0 636.173,0 736,0c4.243,0 8.313,-1.686 11.314,-4.686c3,-3.001 4.686,-7.071 4.686,-11.314c0,-62.466 0,-289.534 0,-352c0,-4.243 -1.686,-8.313 -4.686,-11.314c-3.001,-3 -7.071,-4.686 -11.314,-4.686c-99.827,0 -636.173,0 -736,0Z" style="fill:none;stroke:#000;stroke-width:4px;stroke-linecap:butt;"/><path id="ligne" d="M537.6,224l358.4,0c17.673,0 32,14.327 32,32l0,384c0,17.673 -14.327,32 -32,32c-132.287,0 -635.713,0 -768,0c-17.673,0 -32,-14.327 -32,-32c0,-82.467 0,-301.533 0,-384c0,-17.673 14.327,-32 32,-32l358.4,0" style="fill:none;stroke:#fff;stroke-width:6px;stroke-linecap:butt;stroke-dasharray:24,18,0,0;"/></g><g id="Bornes"><g><rect x="496" y="163.2" width="32" height="22.4" style="fill:#fff;stroke:#000;stroke-width:2px;"/><path d="M528,163.2l-32,0l0,0c0,-8.837 7.163,-16 16,-16c0,0 0,0 0,0c8.837,0 16,7.163 16,16c0,0 0,0 0,0Z" style="fill:#c00000;stroke:#000;stroke-width:2px;"/><text x="500.243px" y="179.2px" style="font-family:'Impact', sans-serif;font-stretch:condensed;font-size:12px;">1000</text></g><g><rect x="752" y="163.2" width="32" height="22.4" style="fill:#fff;stroke:#000;stroke-width:2px;"/><path d="M784,163.2l-32,0l0,-0.002c0,-8.835 7.163,-15.998 15.998,-15.998c0.001,0 0.001,0 0.002,0c8.837,0 16,7.163 16,16c0,0 0,0 0,0Z" style="fill:#c00000;stroke:#000;stroke-width:2px;"/><text x="759.46px" y="179.2px" style="font-family:'Impact', sans-serif;font-stretch:condensed;font-size:12px;">100</text></g><g><rect x="966.4" y="310.4" width="32" height="22.4" style="fill:#fff;stroke:#000;stroke-width:2px;"/><path d="M998.4,310.4l-32,0l0,-0.002c0,-8.835 7.163,-15.998 15.998,-15.998c0.001,0 0.001,0 0.002,0c8.837,0 16,7.163 16,16c0,0 0,0 0,0Z" style="fill:#c00000;stroke:#000;stroke-width:2px;"/><text x="973.01px" y="326.4px" style="font-family:'Impact', sans-serif;font-stretch:condensed;font-size:12px;">200</text></g><g><rect x="966.4" y="566.4" width="32" height="22.4" style="fill:#fff;stroke:#000;stroke-width:2px;"/><path d="M998.4,566.4l-32,0l0,-0.002c0,-8.835 7.163,-15.998 15.998,-15.998c0.001,0 0.001,0 0.002,0c8.837,0 16,7.163 16,16c0,0 0,0 0,0Z" style="fill:#c00000;stroke:#000;stroke-width:2px;"/><text x="972.823px" y="582.212px" style="font-family:'Impact', sans-serif;font-stretch:condensed;font-size:12px;">300</text></g><g><rect x="752" y="726.4" width="32" height="22.4" style="fill:#fff;stroke:#000;stroke-width:2px;"/><path d="M784,726.4l-32,0l0,-0.002c0,-8.835 7.163,-15.998 15.998,-15.998c0.001,0 0.001,0 0.002,0c8.837,0 16,7.163 16,16c0,0 0,0 0,0Z" style="fill:#c00000;stroke:#000;stroke-width:2px;"/><text x="758.748px" y="742.218px" style="font-family:'Impact', sans-serif;font-stretch:condensed;font-size:12px;">400</text></g><g><rect x="496" y="726.4" width="32" height="22.4" style="fill:#fff;stroke:#000;stroke-width:2px;"/><path d="M528,726.4l-32,0l0,-0.002c0,-8.835 7.163,-15.998 15.998,-15.998c0.001,0 0.001,0 0.002,0c8.837,0 16,7.163 16,16c0,0 0,0 0,0Z" style="fill:#c00000;stroke:#000;stroke-width:2px;"/><text x="502.367px" y="742.4px" style="font-family:'Impact', sans-serif;font-stretch:condensed;font-size:12px;">500</text></g><g><rect x="240" y="726.4" width="32" height="22.4" style="fill:#fff;stroke:#000;stroke-width:2px;"/><path d="M272,726.4l-32,0l0,0c0,-8.837 7.163,-16 16,-16c0,0 0,0 0,0c8.837,0 16,7.163 16,16c0,0 0,0 0,0Z" style="fill:#c00000;stroke:#000;stroke-width:2px;"/><text x="246.32px" y="742.4px" style="font-family:'Impact', sans-serif;font-stretch:condensed;font-size:12px;">600</text></g><g><rect x="25.6" y="566.4" width="32" height="22.4" style="fill:#fff;stroke:#000;stroke-width:2px;"/><path d="M57.6,566.4l-32,0l0,-0.002c0,-8.835 7.163,-15.998 15.998,-15.998c0.001,0 0.001,0 0.002,0c8.837,0 16,7.163 16,16c0,0 0,0 0,0Z" style="fill:#c00000;stroke:#000;stroke-width:2px;"/><text x="32.996px" y="582.218px" style="font-family:'Impact', sans-serif;font-stretch:condensed;font-size:12px;">700</text></g><g><rect x="25.6" y="310.4" width="32" height="22.4" style="fill:#fff;stroke:#000;stroke-width:2px;"/><path d="M57.6,310.4l-32,0l0,-0.002c0,-8.835 7.163,-15.998 15.998,-15.998c0.001,0 0.001,0 0.002,0c8.837,0 16,7.163 16,16c0,0 0,0 0,0Z" style="fill:#c00000;stroke:#000;stroke-width:2px;"/><text x="31.979px" y="326.4px" style="font-family:'Impact', sans-serif;font-stretch:condensed;font-size:12px;">800</text></g><g><rect x="240" y="163.2" width="32" height="22.4" style="fill:#fff;stroke:#000;stroke-width:2px;"/><path d="M272,163.2l-32,0l0,0c0,-8.837 7.163,-16 16,-16c0,0 0,0 0,0c8.837,0 16,7.163 16,16c0,0 0,0 0,0Z" style="fill:#c00000;stroke:#000;stroke-width:2px;"/><text x="246.32px" y="179.2px" style="font-family:'Impact', sans-serif;font-stretch:condensed;font-size:12px;">900</text></g></g></svg>